<svg width="672" height="450" viewBox="0 0 672 450" fill="none" xmlns="http://www.w3.org/2000/svg">
<g opacity="0.4">
<path d="M529.605 50.8213H142.091V399.525H529.605V50.8213Z" stroke="#21002A" stroke-width="0.264859" stroke-linejoin="round"/>
<path d="M142.091 341.406H529.605" stroke="#21002A" stroke-width="0.264859" stroke-linejoin="round"/>
<path d="M142.091 283.287H529.605" stroke="#21002A" stroke-width="0.264859" stroke-linejoin="round"/>
<path d="M142.091 225.178H529.605" stroke="#21002A" stroke-width="0.264859" stroke-linejoin="round"/>
<path d="M142.091 167.059H529.605" stroke="#21002A" stroke-width="0.264859" stroke-linejoin="round"/>
<path d="M142.091 108.94H529.605" stroke="#21002A" stroke-width="0.264859" stroke-linejoin="round"/>
<path d="M465.023 50.8213V399.525" stroke="#21002A" stroke-width="0.264859" stroke-linejoin="round"/>
<path d="M400.43 50.8213V399.525" stroke="#21002A" stroke-width="0.264859" stroke-linejoin="round"/>
<path d="M335.848 50.8213V399.525" stroke="#21002A" stroke-width="0.264859" stroke-linejoin="round"/>
<path d="M271.264 50.8213V399.525" stroke="#21002A" stroke-width="0.264859" stroke-linejoin="round"/>
<path d="M206.675 50.8213V399.525" stroke="#21002A" stroke-width="0.264859" stroke-linejoin="round"/>
</g>
<path d="M236.792 60.5454L242.137 74.6891L227.421 75.8763L222.08 61.7327L236.792 60.5454Z" fill="#22CB80" stroke="#0D0112" stroke-width="0.18359" stroke-miterlimit="10"/>
<path d="M242.138 74.6938L235.789 83.8539L221.073 85.0411L227.422 75.8811L242.138 74.6938Z" fill="#21002A" stroke="#110604" stroke-width="0.18359" stroke-miterlimit="10"/>
<path d="M227.421 75.881L221.072 85.0411L215.727 70.8974L222.081 61.7421L227.421 75.8857V75.881Z" fill="white" stroke="#110604" stroke-width="0.18359" stroke-miterlimit="10"/>
<path d="M465.731 83.4219C465.665 80.5664 464.405 78.0873 462.475 76.361H462.483L458.155 72.5237L173.002 363.076L177.346 366.922C179.294 368.607 181.961 369.483 184.784 368.992L456.543 321.775C464.921 320.318 470.975 312.955 470.779 304.454L465.731 83.4219Z" fill="#21002A" stroke="#21002A" stroke-width="0.233699" stroke-miterlimit="10"/>
<path d="M454.211 317.511L180.374 365.089C174.556 366.103 169.353 361.325 169.868 355.434L188.416 143.288C188.907 137.7 192.892 133.052 198.341 131.711L449.163 70.2078C455.258 68.7105 461.174 73.2433 461.313 79.5187L466.41 302.661C466.574 309.951 461.386 316.26 454.211 317.511Z" fill="#F0CAFB" stroke="#21002A" stroke-width="0.233699" stroke-miterlimit="10"/>
<path d="M186.281 167.752L461.853 103.86L466.377 106.674" stroke="#21002A" stroke-width="0.233699" stroke-miterlimit="10"/>
<path d="M461.869 103.876L461.845 103.86L186.273 167.751L188.408 143.288C188.899 137.7 192.884 133.044 198.333 131.711L449.163 70.2078C455.258 68.7105 461.174 73.2433 461.313 79.5187L461.869 103.876Z" fill="#FCFCFC" stroke="#21002A" stroke-width="0.233699" stroke-miterlimit="10"/>
<path d="M210.593 150.047C213.029 147.856 213.561 144.476 211.782 142.497C210.002 140.518 206.585 140.689 204.148 142.879C201.712 145.07 201.18 148.45 202.96 150.429C204.739 152.408 208.157 152.237 210.593 150.047Z" fill="#21002A" stroke="#21002A" stroke-width="0.233699" stroke-miterlimit="10"/>
<path d="M227.113 146.239C229.549 144.049 230.082 140.668 228.302 138.689C226.523 136.71 223.105 136.881 220.669 139.072C218.233 141.262 217.701 144.642 219.48 146.621C221.26 148.601 224.677 148.429 227.113 146.239Z" fill="#21002A" stroke="#21002A" stroke-width="0.233699" stroke-miterlimit="10"/>
<path d="M243.825 142.381C246.261 140.191 246.793 136.81 245.014 134.831C243.234 132.852 239.817 133.023 237.381 135.214C234.945 137.404 234.412 140.784 236.192 142.763C237.971 144.743 241.389 144.571 243.825 142.381Z" fill="#21002A" stroke="#21002A" stroke-width="0.233699" stroke-miterlimit="10"/>
<path d="M209.757 149.091C212.194 146.9 212.726 143.52 210.946 141.541C209.167 139.562 205.749 139.733 203.313 141.924C200.877 144.114 200.345 147.494 202.124 149.473C203.904 151.452 207.321 151.281 209.757 149.091Z" fill="#FF7357" stroke="#21002A" stroke-width="0.233699" stroke-miterlimit="10"/>
<g opacity="0.6">
<path d="M465.641 274.917L427.293 279.147L423.341 248.907L463.154 141.677L465.641 274.917Z" fill="#21002A"/>
</g>
<path d="M226.278 145.283C228.714 143.093 229.247 139.713 227.467 137.734C225.687 135.754 222.27 135.926 219.834 138.116C217.398 140.306 216.866 143.687 218.645 145.666C220.425 147.645 223.842 147.474 226.278 145.283Z" fill="#FFCF03" stroke="#21002A" stroke-width="0.233699" stroke-miterlimit="10"/>
<path d="M242.99 141.425C245.426 139.235 245.958 135.855 244.179 133.876C242.399 131.897 238.982 132.068 236.546 134.258C234.11 136.449 233.577 139.829 235.357 141.808C237.136 143.787 240.554 143.616 242.99 141.425Z" fill="#22CB80" stroke="#21002A" stroke-width="0.233699" stroke-miterlimit="10"/>
<g opacity="0.6">
<path d="M333.578 164.307C378.39 164.307 409.996 199.309 407.493 242.804C404.997 286.29 369.374 321.3 324.562 321.3C279.75 321.3 248.144 286.29 250.647 242.804C253.143 199.309 288.766 164.307 333.578 164.307ZM326.272 291.608C352.748 291.608 373.26 271.448 374.905 242.812C376.549 214.167 358.353 194.015 331.868 194.015C305.392 194.015 284.88 214.167 283.235 242.812C281.591 271.448 299.787 291.608 326.272 291.608Z" fill="#21002A"/>
</g>
<path d="M538.615 220.435L574.369 241.486L563.545 249.611L542.722 251.796L557.351 272.815L546.535 280.931L513.66 284.392L509.839 255.256L430.925 263.553L426.974 229.656L465.723 130.41L476.539 122.286L501.895 126.606L462.99 228.387L505.74 223.887L501.044 188.035L511.86 179.91L533.926 184.582L538.615 220.435Z" fill="#340459" stroke="#21002A" stroke-width="0.233699" stroke-miterlimit="10"/>
<path d="M549.431 212.31L570.262 210.125L574.369 241.486L553.538 243.679L557.351 272.814L524.476 276.267L520.664 247.132L441.742 255.428L437.782 225.18L476.539 122.285L512.711 118.489L473.806 220.263L516.556 215.771L511.86 179.91L514.053 179.681L544.743 176.457L549.431 212.31Z" fill="white" stroke="black" stroke-width="0.545299" stroke-miterlimit="10"/>
<path d="M335.714 187.437L344.894 192.412C338.741 189.082 331.525 187.257 323.555 187.257C297.079 187.257 276.567 207.409 274.923 236.053C273.777 256.074 282.319 271.947 296.613 279.695L287.433 274.721C273.139 266.981 264.589 251.1 265.743 231.079C267.387 202.434 287.899 182.282 314.375 182.282C322.345 182.282 329.561 184.107 335.714 187.437Z" fill="#340459" stroke="#21002A" stroke-width="0.233699" stroke-miterlimit="10"/>
<path d="M316.077 152.583C360.889 152.583 392.495 187.584 389.992 231.079C387.496 274.565 351.873 309.575 307.061 309.575C262.249 309.575 230.643 274.565 233.146 231.079C235.642 187.584 271.265 152.583 316.077 152.583ZM308.771 279.884C335.247 279.884 355.759 259.724 357.404 231.087C359.048 202.443 340.852 182.291 314.367 182.291C287.883 182.291 267.379 202.443 265.735 231.087C264.09 259.724 282.286 279.884 308.771 279.884Z" fill="white" stroke="black" stroke-width="0.545299" stroke-miterlimit="10"/>
<path d="M352.756 161.574L361.936 166.549C386.155 179.664 400.915 205.805 399.18 236.054C396.685 279.54 361.061 314.55 316.249 314.55C302.602 314.55 290.182 311.302 279.578 305.558L270.398 300.584C281.002 306.327 293.43 309.575 307.069 309.575C351.881 309.575 387.505 274.565 390 231.079C391.735 200.831 376.983 174.69 352.756 161.574Z" fill="#340459" stroke="#21002A" stroke-width="0.233699" stroke-miterlimit="10"/>
<path d="M439.701 360.829L450.141 382.359L427.124 386.324L416.684 364.804L439.701 360.818V360.829Z" fill="#22CB80" stroke="#0D0112" stroke-width="0.0797156" stroke-miterlimit="10"/>
<path d="M450.151 382.369L441.456 397.704L418.449 401.669L427.134 386.335L450.151 382.369Z" fill="#21002A" stroke="#110604" stroke-width="0.0797156" stroke-miterlimit="10"/>
<path d="M427.124 386.334L418.44 401.669L408 380.149L416.684 364.815L427.124 386.334Z" fill="white" stroke="#110604" stroke-width="0.0797156" stroke-miterlimit="10"/>
<path d="M151.269 174.036L122.55 143.419" stroke="#0D0112" stroke-width="0.778998" stroke-miterlimit="10"/>
<path d="M156.959 171.08L155.384 137.455" stroke="#0D0112" stroke-width="0.778998" stroke-miterlimit="10"/>
<g opacity="0.6">
<path d="M201.916 197.91L180.153 237.993L183.524 199.448L201.916 197.91Z" fill="#21002A"/>
<path d="M228.998 288.344L225.717 318.805L208.486 320.245L205.435 348.529L178.23 350.796L181.282 322.519L172.707 323.239L175.366 292.828L184.571 292.058L188.318 257.253L190.135 257.106L215.523 254.979L211.775 289.792L228.998 288.344Z" fill="#21002A"/>
</g>
<path d="M145.678 179.121L115.091 174.803" stroke="#0D0112" stroke-width="0.778998" stroke-miterlimit="10"/>
<path d="M200.665 278.869L210.098 270.605L217.895 277.429L214.615 307.89L197.384 309.322L194.332 337.614L167.127 339.881L159.33 333.057L170.179 311.596L104.88 317.054L97.0909 310.23L108.055 287.681L160.876 189.491L183.016 180.172L190.814 186.987L138.09 284.097L173.468 281.135L196.623 237.24L204.42 244.064L200.665 278.869Z" fill="#340459" stroke="#21002A" stroke-width="0.233699" stroke-miterlimit="10"/>
<path d="M192.875 272.045L210.098 270.605L206.817 301.066L189.586 302.498L186.535 330.791L159.33 333.057L162.382 304.781L97.0909 310.23L100.257 280.857L153.079 182.667L183.016 180.172L130.293 277.274L165.671 274.32L169.418 239.506L171.226 239.359L196.623 237.24L192.875 272.045Z" fill="white" stroke="black" stroke-width="0.545299" stroke-miterlimit="10"/>
<path d="M572.906 101.195C558.291 97.7753 556.667 95.8155 555.678 80.6582C552.276 95.4854 550.335 97.1306 535.382 98.1699C549.997 101.59 551.621 103.55 552.609 118.707C556.012 103.88 557.953 102.235 572.906 101.195Z" fill="white" stroke="#110604" stroke-width="0.233699" stroke-miterlimit="10"/>
<path d="M89.2118 349.515C78.5367 347.017 77.3505 345.585 76.6283 334.514C74.1429 345.344 72.7252 346.546 61.8031 347.305C72.4782 349.803 73.6644 351.235 74.3866 362.306C76.872 351.476 78.2897 350.274 89.2118 349.515Z" fill="white" stroke="#110604" stroke-width="0.170702" stroke-miterlimit="10"/>
</svg>
